<?xml version="1.0" encoding="UTF-8" standalone="no"?>
<svg width="264.231mm" height="216.958mm"
 viewBox="0 0 749 615"
 xmlns="http://www.w3.org/2000/svg" xmlns:xlink="http://www.w3.org/1999/xlink"  version="1.2" baseProfile="tiny">
<title>Qt SVG Document</title>
<desc>MATLAB, The MathWorks, Inc. Version 25.2.0.3123386 R2025b Update 3</desc>
<defs>
</defs>
<g fill="none" stroke="black" stroke-width="1" fill-rule="evenodd" stroke-linecap="square" stroke-linejoin="bevel" >

<g fill="#ffffff" fill-opacity="1" stroke="none" transform="matrix(0.510966,0,0,0.517001,-85.3643,-38.9553)"
font-family=".AppleSystemUIFont" font-size="13" font-weight="400" font-style="normal" 
>
<path vector-effect="none" fill-rule="evenodd" d="M167,75 L1633,75 L1633,1265 L167,1265 L167,75"/>
</g>

<g fill="#ffffff" fill-opacity="1" stroke="none" transform="matrix(5.10966e-05,0,0,5.17001e-05,-85.3643,-38.9553)"
font-family=".AppleSystemUIFont" font-size="13" font-weight="400" font-style="normal" 
>
<path vector-effect="none" fill-rule="evenodd" d="M2.34e+06,1.02e+06 L2.34e+06,5.65e+06 L1.629e+07,5.65e+06 L1.629e+07,1.02e+06 L2.34e+06,1.02e+06"/>
</g>

<g fill="#212121" fill-opacity="0.14902" stroke="#212121" stroke-opacity="0.14902" stroke-width="1" stroke-linecap="butt" stroke-linejoin="round" transform="matrix(0.510966,0,0,0.517001,-85.3643,-38.9553)"
font-family=".AppleSystemUIFont" font-size="13" font-weight="400" font-style="normal" 
>
<polyline fill="none" vector-effect="none" points="267.214,102 267.214,565 " />
<polyline fill="none" vector-effect="none" points="421.384,102 421.384,565 " />
<polyline fill="none" vector-effect="none" points="575.554,102 575.554,565 " />
<polyline fill="none" vector-effect="none" points="729.723,102 729.723,565 " />
<polyline fill="none" vector-effect="none" points="883.893,102 883.893,565 " />
<polyline fill="none" vector-effect="none" points="1038.06,102 1038.06,565 " />
<polyline fill="none" vector-effect="none" points="1192.23,102 1192.23,565 " />
<polyline fill="none" vector-effect="none" points="1346.4,102 1346.4,565 " />
<polyline fill="none" vector-effect="none" points="1500.57,102 1500.57,565 " />
<polyline fill="none" vector-effect="none" points="234,565 1629,565 " />
<polyline fill="none" vector-effect="none" points="234,518.7 1629,518.7 " />
<polyline fill="none" vector-effect="none" points="234,472.4 1629,472.4 " />
<polyline fill="none" vector-effect="none" points="234,426.1 1629,426.1 " />
<polyline fill="none" vector-effect="none" points="234,379.8 1629,379.8 " />
<polyline fill="none" vector-effect="none" points="234,333.5 1629,333.5 " />
<polyline fill="none" vector-effect="none" points="234,287.2 1629,287.2 " />
<polyline fill="none" vector-effect="none" points="234,240.9 1629,240.9 " />
<polyline fill="none" vector-effect="none" points="234,194.6 1629,194.6 " />
<polyline fill="none" vector-effect="none" points="234,148.3 1629,148.3 " />
<polyline fill="none" vector-effect="none" points="234,102 1629,102 " />
</g>

<g fill="#212121" fill-opacity="1" stroke="#212121" stroke-opacity="1" stroke-width="1" stroke-linecap="square" stroke-linejoin="round" transform="matrix(0.510966,0,0,0.517001,-85.3643,-38.9553)"
font-family=".AppleSystemUIFont" font-size="13" font-weight="400" font-style="normal" 
>
<polyline fill="none" vector-effect="none" points="234,565 1629,565 " />
<polyline fill="none" vector-effect="none" points="234,102 1629,102 " />
<polyline fill="none" vector-effect="none" points="267.214,565 267.214,551.05 " />
<polyline fill="none" vector-effect="none" points="421.384,565 421.384,551.05 " />
<polyline fill="none" vector-effect="none" points="575.554,565 575.554,551.05 " />
<polyline fill="none" vector-effect="none" points="729.723,565 729.723,551.05 " />
<polyline fill="none" vector-effect="none" points="883.893,565 883.893,551.05 " />
<polyline fill="none" vector-effect="none" points="1038.06,565 1038.06,551.05 " />
<polyline fill="none" vector-effect="none" points="1192.23,565 1192.23,551.05 " />
<polyline fill="none" vector-effect="none" points="1346.4,565 1346.4,551.05 " />
<polyline fill="none" vector-effect="none" points="1500.57,565 1500.57,551.05 " />
<polyline fill="none" vector-effect="none" points="267.214,102 267.214,115.95 " />
<polyline fill="none" vector-effect="none" points="421.384,102 421.384,115.95 " />
<polyline fill="none" vector-effect="none" points="575.554,102 575.554,115.95 " />
<polyline fill="none" vector-effect="none" points="729.723,102 729.723,115.95 " />
<polyline fill="none" vector-effect="none" points="883.893,102 883.893,115.95 " />
<polyline fill="none" vector-effect="none" points="1038.06,102 1038.06,115.95 " />
<polyline fill="none" vector-effect="none" points="1192.23,102 1192.23,115.95 " />
<polyline fill="none" vector-effect="none" points="1346.4,102 1346.4,115.95 " />
<polyline fill="none" vector-effect="none" points="1500.57,102 1500.57,115.95 " />
</g>

<g fill="#212121" fill-opacity="1" stroke="#212121" stroke-opacity="1" stroke-width="1" stroke-linecap="square" stroke-linejoin="bevel" transform="matrix(0.510966,0,0,0.517001,48.3629,265.041)"
font-family="Helvetica" font-size="20" font-weight="400" font-style="normal" 
>
<text fill="#212121" fill-opacity="1" stroke="none" xml:space="preserve" x="0" y="0.390625" font-family="Helvetica" font-size="20" font-weight="400" font-style="normal" 
 >0</text>
</g>

<g fill="#212121" fill-opacity="1" stroke="#212121" stroke-opacity="1" stroke-width="1" stroke-linecap="square" stroke-linejoin="bevel" transform="matrix(0.510966,0,0,0.517001,122.795,265.041)"
font-family="Helvetica" font-size="20" font-weight="400" font-style="normal" 
>
<text fill="#212121" fill-opacity="1" stroke="none" xml:space="preserve" x="0" y="0.390625" font-family="Helvetica" font-size="20" font-weight="400" font-style="normal" 
 >0.5</text>
</g>

<g fill="#212121" fill-opacity="1" stroke="#212121" stroke-opacity="1" stroke-width="1" stroke-linecap="square" stroke-linejoin="bevel" transform="matrix(0.510966,0,0,0.517001,205.914,265.041)"
font-family="Helvetica" font-size="20" font-weight="400" font-style="normal" 
>
<text fill="#212121" fill-opacity="1" stroke="none" xml:space="preserve" x="0" y="0.390625" font-family="Helvetica" font-size="20" font-weight="400" font-style="normal" 
 >1</text>
</g>

<g fill="#212121" fill-opacity="1" stroke="#212121" stroke-opacity="1" stroke-width="1" stroke-linecap="square" stroke-linejoin="bevel" transform="matrix(0.510966,0,0,0.517001,280.346,265.041)"
font-family="Helvetica" font-size="20" font-weight="400" font-style="normal" 
>
<text fill="#212121" fill-opacity="1" stroke="none" xml:space="preserve" x="0" y="0.390625" font-family="Helvetica" font-size="20" font-weight="400" font-style="normal" 
 >1.5</text>
</g>

<g fill="#212121" fill-opacity="1" stroke="#212121" stroke-opacity="1" stroke-width="1" stroke-linecap="square" stroke-linejoin="bevel" transform="matrix(0.510966,0,0,0.517001,363.465,265.041)"
font-family="Helvetica" font-size="20" font-weight="400" font-style="normal" 
>
<text fill="#212121" fill-opacity="1" stroke="none" xml:space="preserve" x="0" y="0.390625" font-family="Helvetica" font-size="20" font-weight="400" font-style="normal" 
 >2</text>
</g>

<g fill="#212121" fill-opacity="1" stroke="#212121" stroke-opacity="1" stroke-width="1" stroke-linecap="square" stroke-linejoin="bevel" transform="matrix(0.510966,0,0,0.517001,437.897,265.041)"
font-family="Helvetica" font-size="20" font-weight="400" font-style="normal" 
>
<text fill="#212121" fill-opacity="1" stroke="none" xml:space="preserve" x="0" y="0.390625" font-family="Helvetica" font-size="20" font-weight="400" font-style="normal" 
 >2.5</text>
</g>

<g fill="#212121" fill-opacity="1" stroke="#212121" stroke-opacity="1" stroke-width="1" stroke-linecap="square" stroke-linejoin="bevel" transform="matrix(0.510966,0,0,0.517001,521.016,265.041)"
font-family="Helvetica" font-size="20" font-weight="400" font-style="normal" 
>
<text fill="#212121" fill-opacity="1" stroke="none" xml:space="preserve" x="0" y="0.390625" font-family="Helvetica" font-size="20" font-weight="400" font-style="normal" 
 >3</text>
</g>

<g fill="#212121" fill-opacity="1" stroke="#212121" stroke-opacity="1" stroke-width="1" stroke-linecap="square" stroke-linejoin="bevel" transform="matrix(0.510966,0,0,0.517001,595.448,265.041)"
font-family="Helvetica" font-size="20" font-weight="400" font-style="normal" 
>
<text fill="#212121" fill-opacity="1" stroke="none" xml:space="preserve" x="0" y="0.390625" font-family="Helvetica" font-size="20" font-weight="400" font-style="normal" 
 >3.5</text>
</g>

<g fill="#212121" fill-opacity="1" stroke="#212121" stroke-opacity="1" stroke-width="1" stroke-linecap="square" stroke-linejoin="bevel" transform="matrix(0.510966,0,0,0.517001,678.567,265.041)"
font-family="Helvetica" font-size="20" font-weight="400" font-style="normal" 
>
<text fill="#212121" fill-opacity="1" stroke="none" xml:space="preserve" x="0" y="0.390625" font-family="Helvetica" font-size="20" font-weight="400" font-style="normal" 
 >4</text>
</g>

<g fill="#212121" fill-opacity="1" stroke="#212121" stroke-opacity="1" stroke-width="1" stroke-linecap="square" stroke-linejoin="bevel" transform="matrix(0.510966,0,0,0.517001,731.16,277.966)"
font-family="Helvetica" font-size="20" font-weight="400" font-style="normal" 
>
<text fill="#212121" fill-opacity="1" stroke="none" xml:space="preserve" x="0" y="0.390625" font-family="Helvetica" font-size="20" font-weight="400" font-style="normal" 
 >sec</text>
</g>

<g fill="#212121" fill-opacity="1" stroke="#212121" stroke-opacity="1" stroke-width="1" stroke-linecap="square" stroke-linejoin="bevel" transform="matrix(0,-0.517001,0.510966,0,12.7413,180.512)"
font-family="Helvetica" font-size="22" font-weight="400" font-style="normal" 
>
<text fill="#212121" fill-opacity="1" stroke="none" xml:space="preserve" x="0" y="-0.0625" font-family="Helvetica" font-size="22" font-weight="400" font-style="normal" 
 >Position (Degrees)</text>
</g>

<g fill="#212121" fill-opacity="1" stroke="#212121" stroke-opacity="1" stroke-width="1" stroke-linecap="square" stroke-linejoin="round" transform="matrix(0.510966,0,0,0.517001,-85.3643,-38.9553)"
font-family="Helvetica" font-size="22" font-weight="400" font-style="normal" 
>
<polyline fill="none" vector-effect="none" points="234,565 234,102 " />
<polyline fill="none" vector-effect="none" points="1629,565 1629,102 " />
<polyline fill="none" vector-effect="none" points="234,565 247.95,565 " />
<polyline fill="none" vector-effect="none" points="1615.05,565 1629,565 " />
<polyline fill="none" vector-effect="none" points="234,518.7 247.95,518.7 " />
<polyline fill="none" vector-effect="none" points="1615.05,518.7 1629,518.7 " />
<polyline fill="none" vector-effect="none" points="234,472.4 247.95,472.4 " />
<polyline fill="none" vector-effect="none" points="1615.05,472.4 1629,472.4 " />
<polyline fill="none" vector-effect="none" points="234,426.1 247.95,426.1 " />
<polyline fill="none" vector-effect="none" points="1615.05,426.1 1629,426.1 " />
<polyline fill="none" vector-effect="none" points="234,379.8 247.95,379.8 " />
<polyline fill="none" vector-effect="none" points="1615.05,379.8 1629,379.8 " />
<polyline fill="none" vector-effect="none" points="234,333.5 247.95,333.5 " />
<polyline fill="none" vector-effect="none" points="1615.05,333.5 1629,333.5 " />
<polyline fill="none" vector-effect="none" points="234,287.2 247.95,287.2 " />
<polyline fill="none" vector-effect="none" points="1615.05,287.2 1629,287.2 " />
<polyline fill="none" vector-effect="none" points="234,240.9 247.95,240.9 " />
<polyline fill="none" vector-effect="none" points="1615.05,240.9 1629,240.9 " />
<polyline fill="none" vector-effect="none" points="234,194.6 247.95,194.6 " />
<polyline fill="none" vector-effect="none" points="1615.05,194.6 1629,194.6 " />
<polyline fill="none" vector-effect="none" points="234,148.3 247.95,148.3 " />
<polyline fill="none" vector-effect="none" points="1615.05,148.3 1629,148.3 " />
<polyline fill="none" vector-effect="none" points="234,102 247.95,102 " />
<polyline fill="none" vector-effect="none" points="1615.05,102 1629,102 " />
</g>

<g fill="#212121" fill-opacity="1" stroke="#212121" stroke-opacity="1" stroke-width="1" stroke-linecap="square" stroke-linejoin="bevel" transform="matrix(0.510966,0,0,0.517001,24.4935,255.735)"
font-family="Helvetica" font-size="20" font-weight="400" font-style="normal" 
>
<text fill="#212121" fill-opacity="1" stroke="none" xml:space="preserve" x="0" y="0.390625" font-family="Helvetica" font-size="20" font-weight="400" font-style="normal" 
 >0</text>
</g>

<g fill="#212121" fill-opacity="1" stroke="#212121" stroke-opacity="1" stroke-width="1" stroke-linecap="square" stroke-linejoin="bevel" transform="matrix(0.510966,0,0,0.517001,24.4935,231.798)"
font-family="Helvetica" font-size="20" font-weight="400" font-style="normal" 
>
<text fill="#212121" fill-opacity="1" stroke="none" xml:space="preserve" x="0" y="0.390625" font-family="Helvetica" font-size="20" font-weight="400" font-style="normal" 
 >2</text>
</g>

<g fill="#212121" fill-opacity="1" stroke="#212121" stroke-opacity="1" stroke-width="1" stroke-linecap="square" stroke-linejoin="bevel" transform="matrix(0.510966,0,0,0.517001,24.4935,207.861)"
font-family="Helvetica" font-size="20" font-weight="400" font-style="normal" 
>
<text fill="#212121" fill-opacity="1" stroke="none" xml:space="preserve" x="0" y="0.390625" font-family="Helvetica" font-size="20" font-weight="400" font-style="normal" 
 >4</text>
</g>

<g fill="#212121" fill-opacity="1" stroke="#212121" stroke-opacity="1" stroke-width="1" stroke-linecap="square" stroke-linejoin="bevel" transform="matrix(0.510966,0,0,0.517001,24.4935,183.924)"
font-family="Helvetica" font-size="20" font-weight="400" font-style="normal" 
>
<text fill="#212121" fill-opacity="1" stroke="none" xml:space="preserve" x="0" y="0.390625" font-family="Helvetica" font-size="20" font-weight="400" font-style="normal" 
 >6</text>
</g>

<g fill="#212121" fill-opacity="1" stroke="#212121" stroke-opacity="1" stroke-width="1" stroke-linecap="square" stroke-linejoin="bevel" transform="matrix(0.510966,0,0,0.517001,24.4935,159.987)"
font-family="Helvetica" font-size="20" font-weight="400" font-style="normal" 
>
<text fill="#212121" fill-opacity="1" stroke="none" xml:space="preserve" x="0" y="0.390625" font-family="Helvetica" font-size="20" font-weight="400" font-style="normal" 
 >8</text>
</g>

<g fill="#212121" fill-opacity="1" stroke="#212121" stroke-opacity="1" stroke-width="1" stroke-linecap="square" stroke-linejoin="bevel" transform="matrix(0.510966,0,0,0.517001,18.8729,136.05)"
font-family="Helvetica" font-size="20" font-weight="400" font-style="normal" 
>
<text fill="#212121" fill-opacity="1" stroke="none" xml:space="preserve" x="0" y="0.390625" font-family="Helvetica" font-size="20" font-weight="400" font-style="normal" 
 >10</text>
</g>

<g fill="#212121" fill-opacity="1" stroke="#212121" stroke-opacity="1" stroke-width="1" stroke-linecap="square" stroke-linejoin="bevel" transform="matrix(0.510966,0,0,0.517001,18.8729,112.112)"
font-family="Helvetica" font-size="20" font-weight="400" font-style="normal" 
>
<text fill="#212121" fill-opacity="1" stroke="none" xml:space="preserve" x="0" y="0.390625" font-family="Helvetica" font-size="20" font-weight="400" font-style="normal" 
 >12</text>
</g>

<g fill="#212121" fill-opacity="1" stroke="#212121" stroke-opacity="1" stroke-width="1" stroke-linecap="square" stroke-linejoin="bevel" transform="matrix(0.510966,0,0,0.517001,18.8729,88.1752)"
font-family="Helvetica" font-size="20" font-weight="400" font-style="normal" 
>
<text fill="#212121" fill-opacity="1" stroke="none" xml:space="preserve" x="0" y="0.390625" font-family="Helvetica" font-size="20" font-weight="400" font-style="normal" 
 >14</text>
</g>

<g fill="#212121" fill-opacity="1" stroke="#212121" stroke-opacity="1" stroke-width="1" stroke-linecap="square" stroke-linejoin="bevel" transform="matrix(0.510966,0,0,0.517001,18.8729,64.2381)"
font-family="Helvetica" font-size="20" font-weight="400" font-style="normal" 
>
<text fill="#212121" fill-opacity="1" stroke="none" xml:space="preserve" x="0" y="0.390625" font-family="Helvetica" font-size="20" font-weight="400" font-style="normal" 
 >16</text>
</g>

<g fill="#212121" fill-opacity="1" stroke="#212121" stroke-opacity="1" stroke-width="1" stroke-linecap="square" stroke-linejoin="bevel" transform="matrix(0.510966,0,0,0.517001,18.8729,40.3009)"
font-family="Helvetica" font-size="20" font-weight="400" font-style="normal" 
>
<text fill="#212121" fill-opacity="1" stroke="none" xml:space="preserve" x="0" y="0.390625" font-family="Helvetica" font-size="20" font-weight="400" font-style="normal" 
 >18</text>
</g>

<g fill="#212121" fill-opacity="1" stroke="#212121" stroke-opacity="1" stroke-width="1" stroke-linecap="square" stroke-linejoin="bevel" transform="matrix(0.510966,0,0,0.517001,18.8729,16.3638)"
font-family="Helvetica" font-size="20" font-weight="400" font-style="normal" 
>
<text fill="#212121" fill-opacity="1" stroke="none" xml:space="preserve" x="0" y="0.390625" font-family="Helvetica" font-size="20" font-weight="400" font-style="normal" 
 >20</text>
</g>

<g fill="#212121" fill-opacity="1" stroke="#212121" stroke-opacity="1" stroke-width="1" stroke-linecap="square" stroke-linejoin="bevel" transform="matrix(0.510966,0,0,0.517001,275.633,9.77202)"
font-family="Helvetica" font-size="22" font-weight="700" font-style="normal" 
>
<text fill="#212121" fill-opacity="1" stroke="none" xml:space="preserve" x="0" y="-0.0625" font-family="Helvetica" font-size="22" font-weight="700" font-style="normal" 
 >Actual Arm Positions (Hardware Feedback)</text>
</g>

<g fill="none" stroke="#0000ff" stroke-opacity="1" stroke-width="3" stroke-linecap="butt" stroke-linejoin="round" transform="matrix(0.510966,0,0,0.517001,-85.3643,-38.9553)"
font-family="Helvetica" font-size="22" font-weight="700" font-style="normal" 
>
<polyline fill="none" vector-effect="none" points="267.214,563.755 269.826,563.755 273.013,563.755 276.086,563.755 279.209,563.755 282.21,563.755 285.347,563.755 288.437,563.755 291.549,563.755 294.549,563.755 297.589,563.755 300.76,563.755 303.877,563.755 306.903,563.755 309.993,563.755 313.078,563.755 316.242,563.755 319.194,563.755 322.299,563.755 325.425,563.755 328.561,563.755 331.587,563.755 334.701,563.755 337.737,563.755 340.823,563.755 343.901,563.755 347.005,563.755 350.02,563.755 353.16,563.755 356.224,563.755 359.368,563.755 362.399,563.755 365.543,563.755 368.578,563.755 371.71,563.755 374.738,563.755 377.854,563.755 380.894,563.755 384.028,563.755 387.069,563.755 390.172,563.755 393.235,563.755 396.315,563.755 399.416,563.755 402.485,563.755 405.6,563.755 408.697,563.755 411.73,563.755 414.805,563.755 417.932,563.755 421.044,563.755 424.054,563.755 427.136,563.755 430.238,563.755 433.33,563.755 436.414,563.755 439.465,563.755 442.581,563.755 445.63,563.755 448.743,563.755 451.799,563.755 454.917,563.755 457.933,563.755 461.075,563.755 464.388,563.755 467.181,563.755 470.306,563.755 473.438,563.755 476.504,563.755 479.592,563.755 482.712,563.755 485.819,563.755 488.798,563.755 491.905,563.755 494.98,563.755 498.074,563.755 501.151,563.755 504.224,563.755 507.321,563.755 510.399,563.755 513.467,563.755 516.543,563.755 519.666,563.755 522.741,563.755 525.992,563.755 528.881,563.755 532.022,563.755 535.104,563.755 538.205,563.755 541.252,563.755 544.358,563.755 547.387,563.755 550.505,563.755 553.563,563.755 556.674,563.755 559.767,563.755 562.83,563.755 565.947,563.755 569.001,563.755 572.085,563.755 575.168,563.755 578.227,563.755 581.353,563.755 584.463,563.755 587.472,563.755 590.576,563.755 593.675,563.755 596.728,563.755 599.824,563.755 602.933,563.755 606.085,563.755 609.026,563.755 612.229,563.755 615.246,563.755 618.389,563.755 621.432,563.755 624.482,563.755 627.576,563.755 630.674,563.755 633.761,563.755 636.818,563.755 639.902,563.755 642.929,563.755 646.087,563.755 649.157,563.755 652.25,563.755 655.417,563.755 658.431,563.755 661.478,563.755 664.566,563.755 667.676,563.755 670.736,563.755 673.842,563.755 676.912,563.755 679.99,563.755 683.248,563.755 686.284,563.755 689.203,563.755 692.396,563.755 695.319,563.755 698.502,563.755 701.56,563.755 704.688,563.755 707.77,563.755 710.832,563.755 713.921,563.755 717.002,563.755 720.087,563.755 723.167,563.755 726.249,563.755 729.344,563.755 732.389,563.755 735.484,563.755 738.597,563.755 741.762,563.755 744.724,563.755 747.88,563.755 750.939,563.755 754.002,563.755 757.268,563.755 760.37,563.755 763.217,563.755 766.393,563.755 769.467,563.755 772.519,563.755 775.584,563.755 778.713,563.755 781.772,562.509 784.776,559.396 787.872,556.905 791.009,555.66 794.017,553.792 797.215,550.056 800.223,545.697 803.354,543.206 806.376,541.961 809.544,538.225 812.584,533.866 815.715,528.262 818.732,524.526 821.837,522.658 824.966,518.921 828.047,513.317 831.128,506.468 834.169,500.241 837.275,496.505 840.669,493.391 843.411,488.41 846.476,482.183 849.6,475.334 852.629,468.484 855.707,463.503 858.767,459.144 861.93,453.54 865.026,447.313 868.1,439.841 871.205,432.368 874.248,425.519 877.391,421.16 880.387,416.179 883.496,409.952 886.556,403.102 889.668,395.63 892.745,387.535 895.846,380.063 898.878,372.591 901.984,365.741 905.07,358.892 908.211,352.665 911.224,345.815 914.438,338.966 917.429,332.116 920.508,325.267 923.645,317.795 926.697,310.945 929.764,303.473 932.852,297.246 935.936,290.396 939.019,283.547 942.083,277.32 945.221,270.471 948.22,263.621 951.336,256.772 954.461,249.922 957.503,243.695 960.585,237.468 963.66,231.241 966.74,225.015 969.858,218.788 972.918,212.561 976.036,206.957 979.073,200.73 982.178,195.126 985.235,189.522 988.33,184.54 991.398,178.936 994.802,173.955 997.558,168.973 1000.81,163.992 1003.77,159.633 1006.92,154.651 1009.96,150.915 1013.02,147.802 1016.1,142.82 1019.29,137.216 1022.29,134.103 1025.4,132.235 1028.45,129.121 1031.51,124.763 1034.59,121.026 1037.71,119.781 1040.76,117.913 1043.85,114.177 1046.96,111.686 1050.05,110.441 1053.08,109.818 1056.18,109.818 1059.28,107.327 1062.35,105.459 1065.4,104.214 1068.58,104.214 1071.66,104.214 1074.65,104.837 1077.8,104.837 1080.87,104.837 1084.01,104.837 1087.06,104.837 1090.11,104.837 1093.18,104.837 1096.25,104.837 1099.4,104.837 1102.46,104.837 1105.51,104.837 1108.52,104.837 1111.69,104.837 1114.8,104.837 1117.85,104.837 1120.9,104.837 1124.06,104.837 1127.07,104.837 1130.19,104.837 1133.26,104.837 1136.39,104.837 1139.46,104.837 1142.49,104.837 1145.59,104.837 1148.88,104.837 1151.79,104.837 1154.81,104.837 1157.95,104.837 1161.08,104.837 1164.06,104.837 1167.21,104.837 1170.25,104.837 1173.35,104.837 1176.42,104.837 1179.52,104.837 1182.61,104.837 1185.67,104.837 1188.79,104.837 1191.85,104.837 1194.9,104.837 1198,104.837 1201.12,104.837 1204.2,104.837 1207.23,104.837 1210.35,104.837 1213.37,104.837 1216.49,104.837 1219.57,104.837 1222.69,104.837 1225.74,104.837 1228.84,104.837 1231.98,104.837 1235.04,104.837 1238.12,104.837 1241.19,104.837 1244.31,104.837 1247.28,104.837 1250.43,104.837 1253.57,104.837 1256.57,104.837 1259.71,104.837 1262.88,104.837 1265.84,104.837 1268.91,104.837 1272.02,104.837 1275.07,104.837 1278.16,104.837 1281.24,104.837 1284.34,104.837 1287.45,104.837 1290.49,104.837 1293.57,104.837 1296.7,104.837 1299.74,104.837 1303.07,104.837 1305.96,104.837 1309,104.837 1312.08,104.837 1315.17,104.837 1318.28,104.837 1321.36,104.837 1324.45,104.837 1327.49,104.837 1330.6,104.837 1333.69,104.837 1336.76,104.837 1339.87,104.837 1342.97,104.837 1346,104.837 1349.1,104.837 1352.18,104.837 1355.33,104.837 1358.35,104.837 1361.4,104.837 1364.52,104.837 1367.59,104.837 1370.7,104.837 1373.75,104.837 1377.07,104.837 1379.93,104.837 1383.02,104.837 1386.1,104.837 1389.19,104.837 1392.28,104.837 1395.4,104.837 1398.41,104.837 1401.53,104.837 1404.67,104.837 1407.71,104.837 1410.75,104.837 1413.84,104.837 1416.92,104.837 1419.99,104.837 1423.11,104.837 1426.19,104.837 1429.3,104.837 1432.39,104.837 1435.45,104.837 1438.56,104.837 1441.56,104.837 1444.68,104.837 1447.75,104.837 1450.87,104.837 1453.9,104.837 1457.09,104.837 1460.18,104.837 1463.14,104.837 1466.27,104.837 1469.37,104.837 1472.4,104.837 1475.58,104.837 1478.6,104.837 1481.68,104.837 1484.74,104.837 1487.85,104.837 1490.94,104.837 1494.04,104.837 1497.14,104.837 1500.2,104.837 1503.22,104.837 1506.41,104.837 1509.5,104.837 1512.51,104.837 1515.65,104.837 1518.71,104.837 1521.76,104.837 1524.89,104.837 1527.99,104.837 1531.14,104.837 1534.12,104.837 1537.11,104.837 1540.27,104.837 1543.38,104.837 1546.46,104.837 1549.5,104.837 1552.58,104.837 1555.73,104.837 1558.79,104.837 1561.89,104.837 1564.93,104.837 1568.02,104.837 1571.13,104.837 1574.1,104.837 1577.22,104.837 1580.34,104.837 1583.45,104.837 1586.51,104.837 1589.59,104.837 1592.63,104.837 1595.79,104.837 " />
</g>

<g fill="none" stroke="#ff0000" stroke-opacity="1" stroke-width="3" stroke-linecap="butt" stroke-linejoin="round" transform="matrix(0.510966,0,0,0.517001,-85.3643,-38.9553)"
font-family="Helvetica" font-size="22" font-weight="700" font-style="normal" 
>
<polyline fill="none" vector-effect="none" points="267.214,560.641 269.826,560.641 273.013,560.641 276.086,560.641 279.209,560.641 282.21,560.641 285.347,560.641 288.437,560.641 291.549,560.641 294.549,560.641 297.589,560.641 300.76,560.641 303.877,560.641 306.903,560.641 309.993,560.641 313.078,560.641 316.242,560.641 319.194,560.641 322.299,560.641 325.425,560.641 328.561,560.641 331.587,560.641 334.701,560.641 337.737,560.641 340.823,560.641 343.901,560.641 347.005,560.641 350.02,560.641 353.16,560.641 356.224,560.641 359.368,560.641 362.399,560.641 365.543,560.641 368.578,560.641 371.71,560.641 374.738,560.641 377.854,560.641 380.894,560.641 384.028,560.641 387.069,560.641 390.172,560.641 393.235,560.641 396.315,560.641 399.416,560.641 402.485,560.641 405.6,560.641 408.697,560.641 411.73,560.641 414.805,560.641 417.932,560.641 421.044,560.641 424.054,560.641 427.136,560.641 430.238,560.641 433.33,560.641 436.414,560.641 439.465,560.641 442.581,560.641 445.63,560.641 448.743,560.641 451.799,560.641 454.917,560.641 457.933,560.641 461.075,560.641 464.388,560.641 467.181,560.641 470.306,560.641 473.438,560.641 476.504,560.641 479.592,560.641 482.712,560.641 485.819,560.641 488.798,560.641 491.905,560.641 494.98,560.641 498.074,560.641 501.151,560.641 504.224,560.641 507.321,560.641 510.399,560.641 513.467,560.641 516.543,560.641 519.666,560.641 522.741,560.641 525.992,560.641 528.881,560.641 532.022,560.641 535.104,560.641 538.205,560.641 541.252,560.641 544.358,560.641 547.387,560.641 550.505,560.641 553.563,560.641 556.674,560.641 559.767,560.641 562.83,560.641 565.947,560.641 569.001,560.641 572.085,560.641 575.168,560.641 578.227,560.641 581.353,560.641 584.463,560.641 587.472,560.641 590.576,560.641 593.675,560.641 596.728,560.641 599.824,560.641 602.933,560.641 606.085,560.641 609.026,560.641 612.229,560.641 615.246,560.641 618.389,560.641 621.432,560.641 624.482,560.641 627.576,560.641 630.674,560.641 633.761,560.641 636.818,560.641 639.902,560.641 642.929,560.641 646.087,560.641 649.157,560.641 652.25,560.641 655.417,560.641 658.431,560.641 661.478,560.641 664.566,560.641 667.676,560.641 670.736,560.641 673.842,560.641 676.912,560.641 679.99,560.641 683.248,560.641 686.284,560.641 689.203,560.641 692.396,560.641 695.319,560.641 698.502,560.641 701.56,560.641 704.688,560.641 707.77,560.641 710.832,560.641 713.921,560.641 717.002,560.641 720.087,560.641 723.167,560.641 726.249,560.641 729.344,560.641 732.389,560.641 735.484,560.641 738.597,560.641 741.762,560.641 744.724,560.641 747.88,560.641 750.939,560.641 754.002,560.641 757.268,560.641 760.37,560.641 763.217,560.641 766.393,560.641 769.467,560.641 772.519,560.641 775.584,560.641 778.713,560.641 781.772,559.396 784.776,556.282 787.872,554.414 791.009,553.792 794.017,551.301 797.215,546.942 800.223,543.829 803.354,542.583 806.376,539.47 809.544,534.488 812.584,529.507 815.715,526.394 818.732,523.903 821.837,519.544 824.966,513.94 828.047,507.713 831.128,504.6 834.169,500.864 837.275,495.259 840.669,489.033 843.411,482.806 846.476,478.447 849.6,474.088 852.629,469.107 855.707,462.257 858.767,455.408 861.93,448.558 865.026,442.331 868.1,436.727 871.205,431.123 874.248,425.519 877.391,418.669 880.387,411.82 883.496,405.593 886.556,398.121 889.668,391.894 892.745,385.044 895.846,378.195 898.878,371.968 901.984,365.118 905.07,358.269 908.211,351.419 911.224,344.57 914.438,337.098 917.429,330.248 920.508,323.399 923.645,316.549 926.697,309.7 929.764,303.473 932.852,296.001 935.936,289.151 939.019,282.302 942.083,276.075 945.221,269.225 948.22,262.376 951.336,255.526 954.461,249.299 957.503,243.072 960.585,236.846 963.66,229.996 966.74,223.769 969.858,218.165 972.918,211.938 976.036,206.334 979.073,200.107 982.178,194.503 985.235,188.899 988.33,183.295 991.398,179.559 994.802,175.2 997.558,169.596 1000.81,163.369 1003.77,158.387 1006.92,156.519 1009.96,152.783 1013.02,146.556 1016.1,140.33 1019.29,136.594 1022.29,134.726 1025.4,132.857 1028.45,127.876 1031.51,122.895 1034.59,119.781 1037.71,118.536 1040.76,117.913 1043.85,115.422 1046.96,111.063 1050.05,108.573 1053.08,107.327 1056.18,106.705 1059.28,106.705 1062.35,106.082 1065.4,106.082 1068.58,106.082 1071.66,106.082 1074.65,106.082 1077.8,106.082 1080.87,106.082 1084.01,106.082 1087.06,106.082 1090.11,106.082 1093.18,106.082 1096.25,106.082 1099.4,106.082 1102.46,106.082 1105.51,106.082 1108.52,106.082 1111.69,106.082 1114.8,106.082 1117.85,106.082 1120.9,106.082 1124.06,106.082 1127.07,106.082 1130.19,106.082 1133.26,106.082 1136.39,106.082 1139.46,106.082 1142.49,106.082 1145.59,106.082 1148.88,106.082 1151.79,106.082 1154.81,106.082 1157.95,106.082 1161.08,106.082 1164.06,106.082 1167.21,106.082 1170.25,106.082 1173.35,106.082 1176.42,106.082 1179.52,106.082 1182.61,106.082 1185.67,106.082 1188.79,106.082 1191.85,106.082 1194.9,106.082 1198,106.082 1201.12,106.082 1204.2,106.082 1207.23,106.082 1210.35,106.082 1213.37,106.082 1216.49,106.082 1219.57,106.082 1222.69,106.082 1225.74,106.082 1228.84,106.082 1231.98,106.082 1235.04,106.082 1238.12,106.082 1241.19,106.082 1244.31,106.082 1247.28,106.082 1250.43,106.082 1253.57,106.082 1256.57,106.082 1259.71,106.082 1262.88,106.082 1265.84,106.082 1268.91,106.082 1272.02,106.082 1275.07,106.082 1278.16,106.082 1281.24,106.082 1284.34,106.082 1287.45,106.082 1290.49,106.082 1293.57,106.082 1296.7,106.082 1299.74,106.082 1303.07,106.082 1305.96,106.082 1309,106.082 1312.08,106.082 1315.17,106.082 1318.28,106.082 1321.36,106.082 1324.45,106.082 1327.49,106.082 1330.6,106.082 1333.69,106.082 1336.76,106.082 1339.87,106.082 1342.97,106.082 1346,106.082 1349.1,106.082 1352.18,106.082 1355.33,106.082 1358.35,106.082 1361.4,106.082 1364.52,106.082 1367.59,106.082 1370.7,106.082 1373.75,106.082 1377.07,106.082 1379.93,106.082 1383.02,106.082 1386.1,106.082 1389.19,106.082 1392.28,106.082 1395.4,106.082 1398.41,106.082 1401.53,106.082 1404.67,106.082 1407.71,106.082 1410.75,106.082 1413.84,106.082 1416.92,106.082 1419.99,106.082 1423.11,106.082 1426.19,106.082 1429.3,106.082 1432.39,106.082 1435.45,106.082 1438.56,106.082 1441.56,106.082 1444.68,106.082 1447.75,106.082 1450.87,106.082 1453.9,106.082 1457.09,106.082 1460.18,106.082 1463.14,106.082 1466.27,106.082 1469.37,106.082 1472.4,106.082 1475.58,106.082 1478.6,106.082 1481.68,106.082 1484.74,106.082 1487.85,106.082 1490.94,106.082 1494.04,106.082 1497.14,106.082 1500.2,106.082 1503.22,106.082 1506.41,106.082 1509.5,106.082 1512.51,106.082 1515.65,106.082 1518.71,106.082 1521.76,106.082 1524.89,106.082 1527.99,106.082 1531.14,106.082 1534.12,106.082 1537.11,106.082 1540.27,106.082 1543.38,106.082 1546.46,106.082 1549.5,106.082 1552.58,106.082 1555.73,106.082 1558.79,106.082 1561.89,106.082 1564.93,106.082 1568.02,106.082 1571.13,106.082 1574.1,106.082 1577.22,106.082 1580.34,106.082 1583.45,106.082 1586.51,106.082 1589.59,106.082 1592.63,106.082 1595.79,106.082 " />
</g>

<g fill="#ffffff" fill-opacity="1" stroke="none" transform="matrix(5.10966e-05,0,0,5.17001e-05,-85.3643,-38.9553)"
font-family="Helvetica" font-size="22" font-weight="700" font-style="normal" 
>
<path vector-effect="none" fill-rule="evenodd" d="M1.464e+07,1.18e+06 L1.464e+07,1.67e+06 L1.613e+07,1.67e+06 L1.613e+07,1.18e+06 L1.464e+07,1.18e+06"/>
</g>

<g fill="#0000ff" fill-opacity="1" stroke="#0000ff" stroke-opacity="1" stroke-width="3" stroke-linecap="butt" stroke-linejoin="round" transform="matrix(0.510966,0,0,0.517001,-85.3643,-38.9553)"
font-family="Helvetica" font-size="22" font-weight="700" font-style="normal" 
>
<polyline fill="none" vector-effect="none" points="1469.98,131.569 1529.78,131.569 " />
</g>

<g fill="#ff0000" fill-opacity="1" stroke="#ff0000" stroke-opacity="1" stroke-width="3" stroke-linecap="butt" stroke-linejoin="round" transform="matrix(0.510966,0,0,0.517001,-85.3643,-38.9553)"
font-family="Helvetica" font-size="22" font-weight="700" font-style="normal" 
>
<polyline fill="none" vector-effect="none" points="1469.98,153.431 1529.78,153.431 " />
</g>

<g fill="#212121" fill-opacity="1" stroke="#212121" stroke-opacity="1" stroke-width="1" stroke-linecap="square" stroke-linejoin="bevel" transform="matrix(0.510966,0,0,0.517001,698.593,31.6511)"
font-family="Helvetica" font-size="18" font-weight="400" font-style="normal" 
>
<text fill="#212121" fill-opacity="1" stroke="none" xml:space="preserve" x="0" y="-0.140625" font-family="Helvetica" font-size="18" font-weight="400" font-style="normal" 
 >Base</text>
</g>

<g fill="#212121" fill-opacity="1" stroke="#212121" stroke-opacity="1" stroke-width="1" stroke-linecap="square" stroke-linejoin="bevel" transform="matrix(0.510966,0,0,0.517001,698.593,42.9535)"
font-family="Helvetica" font-size="18" font-weight="400" font-style="normal" 
>
<text fill="#212121" fill-opacity="1" stroke="none" xml:space="preserve" x="0" y="-0.140625" font-family="Helvetica" font-size="18" font-weight="400" font-style="normal" 
 >Shoulder</text>
</g>

<g fill="none" stroke="#212121" stroke-opacity="1" stroke-width="1" stroke-linecap="butt" stroke-linejoin="miter" stroke-miterlimit="5" transform="matrix(0.510966,0,0,0.517001,-85.3643,-38.9553)"
font-family="Helvetica" font-size="18" font-weight="400" font-style="normal" 
>
<path vector-effect="none" fill-rule="evenodd" d="M1464,167 L1464,118 L1613,118 L1613,167 L1464,167"/>
</g>

<g fill="#ffffff" fill-opacity="1" stroke="none" transform="matrix(5.10966e-05,0,0,5.17001e-05,-85.3643,-38.9553)"
font-family="Helvetica" font-size="18" font-weight="400" font-style="normal" 
>
<path vector-effect="none" fill-rule="evenodd" d="M2.34e+06,7.45e+06 L2.34e+06,1.208e+07 L1.629e+07,1.208e+07 L1.629e+07,7.45e+06 L2.34e+06,7.45e+06"/>
</g>

<g fill="#212121" fill-opacity="0.14902" stroke="#212121" stroke-opacity="0.14902" stroke-width="1" stroke-linecap="butt" stroke-linejoin="round" transform="matrix(0.510966,0,0,0.517001,-85.3643,-38.9553)"
font-family="Helvetica" font-size="18" font-weight="400" font-style="normal" 
>
<polyline fill="none" vector-effect="none" points="267.214,745 267.214,1208 " />
<polyline fill="none" vector-effect="none" points="421.384,745 421.384,1208 " />
<polyline fill="none" vector-effect="none" points="575.554,745 575.554,1208 " />
<polyline fill="none" vector-effect="none" points="729.723,745 729.723,1208 " />
<polyline fill="none" vector-effect="none" points="883.893,745 883.893,1208 " />
<polyline fill="none" vector-effect="none" points="1038.06,745 1038.06,1208 " />
<polyline fill="none" vector-effect="none" points="1192.23,745 1192.23,1208 " />
<polyline fill="none" vector-effect="none" points="1346.4,745 1346.4,1208 " />
<polyline fill="none" vector-effect="none" points="1500.57,745 1500.57,1208 " />
<polyline fill="none" vector-effect="none" points="234,1208 1629,1208 " />
<polyline fill="none" vector-effect="none" points="234,1130.83 1629,1130.83 " />
<polyline fill="none" vector-effect="none" points="234,1053.67 1629,1053.67 " />
<polyline fill="none" vector-effect="none" points="234,976.5 1629,976.5 " />
<polyline fill="none" vector-effect="none" points="234,899.333 1629,899.333 " />
<polyline fill="none" vector-effect="none" points="234,822.167 1629,822.167 " />
<polyline fill="none" vector-effect="none" points="234,745 1629,745 " />
</g>

<g fill="#212121" fill-opacity="1" stroke="#212121" stroke-opacity="1" stroke-width="1" stroke-linecap="square" stroke-linejoin="round" transform="matrix(0.510966,0,0,0.517001,-85.3643,-38.9553)"
font-family="Helvetica" font-size="18" font-weight="400" font-style="normal" 
>
<polyline fill="none" vector-effect="none" points="234,1208 1629,1208 " />
<polyline fill="none" vector-effect="none" points="234,745 1629,745 " />
<polyline fill="none" vector-effect="none" points="267.214,1208 267.214,1194.05 " />
<polyline fill="none" vector-effect="none" points="421.384,1208 421.384,1194.05 " />
<polyline fill="none" vector-effect="none" points="575.554,1208 575.554,1194.05 " />
<polyline fill="none" vector-effect="none" points="729.723,1208 729.723,1194.05 " />
<polyline fill="none" vector-effect="none" points="883.893,1208 883.893,1194.05 " />
<polyline fill="none" vector-effect="none" points="1038.06,1208 1038.06,1194.05 " />
<polyline fill="none" vector-effect="none" points="1192.23,1208 1192.23,1194.05 " />
<polyline fill="none" vector-effect="none" points="1346.4,1208 1346.4,1194.05 " />
<polyline fill="none" vector-effect="none" points="1500.57,1208 1500.57,1194.05 " />
<polyline fill="none" vector-effect="none" points="267.214,745 267.214,758.95 " />
<polyline fill="none" vector-effect="none" points="421.384,745 421.384,758.95 " />
<polyline fill="none" vector-effect="none" points="575.554,745 575.554,758.95 " />
<polyline fill="none" vector-effect="none" points="729.723,745 729.723,758.95 " />
<polyline fill="none" vector-effect="none" points="883.893,745 883.893,758.95 " />
<polyline fill="none" vector-effect="none" points="1038.06,745 1038.06,758.95 " />
<polyline fill="none" vector-effect="none" points="1192.23,745 1192.23,758.95 " />
<polyline fill="none" vector-effect="none" points="1346.4,745 1346.4,758.95 " />
<polyline fill="none" vector-effect="none" points="1500.57,745 1500.57,758.95 " />
</g>

<g fill="#212121" fill-opacity="1" stroke="#212121" stroke-opacity="1" stroke-width="1" stroke-linecap="square" stroke-linejoin="bevel" transform="matrix(0.510966,0,0,0.517001,48.3629,597.473)"
font-family="Helvetica" font-size="20" font-weight="400" font-style="normal" 
>
<text fill="#212121" fill-opacity="1" stroke="none" xml:space="preserve" x="0" y="0.390625" font-family="Helvetica" font-size="20" font-weight="400" font-style="normal" 
 >0</text>
</g>

<g fill="#212121" fill-opacity="1" stroke="#212121" stroke-opacity="1" stroke-width="1" stroke-linecap="square" stroke-linejoin="bevel" transform="matrix(0.510966,0,0,0.517001,122.795,597.473)"
font-family="Helvetica" font-size="20" font-weight="400" font-style="normal" 
>
<text fill="#212121" fill-opacity="1" stroke="none" xml:space="preserve" x="0" y="0.390625" font-family="Helvetica" font-size="20" font-weight="400" font-style="normal" 
 >0.5</text>
</g>

<g fill="#212121" fill-opacity="1" stroke="#212121" stroke-opacity="1" stroke-width="1" stroke-linecap="square" stroke-linejoin="bevel" transform="matrix(0.510966,0,0,0.517001,205.914,597.473)"
font-family="Helvetica" font-size="20" font-weight="400" font-style="normal" 
>
<text fill="#212121" fill-opacity="1" stroke="none" xml:space="preserve" x="0" y="0.390625" font-family="Helvetica" font-size="20" font-weight="400" font-style="normal" 
 >1</text>
</g>

<g fill="#212121" fill-opacity="1" stroke="#212121" stroke-opacity="1" stroke-width="1" stroke-linecap="square" stroke-linejoin="bevel" transform="matrix(0.510966,0,0,0.517001,280.346,597.473)"
font-family="Helvetica" font-size="20" font-weight="400" font-style="normal" 
>
<text fill="#212121" fill-opacity="1" stroke="none" xml:space="preserve" x="0" y="0.390625" font-family="Helvetica" font-size="20" font-weight="400" font-style="normal" 
 >1.5</text>
</g>

<g fill="#212121" fill-opacity="1" stroke="#212121" stroke-opacity="1" stroke-width="1" stroke-linecap="square" stroke-linejoin="bevel" transform="matrix(0.510966,0,0,0.517001,363.465,597.473)"
font-family="Helvetica" font-size="20" font-weight="400" font-style="normal" 
>
<text fill="#212121" fill-opacity="1" stroke="none" xml:space="preserve" x="0" y="0.390625" font-family="Helvetica" font-size="20" font-weight="400" font-style="normal" 
 >2</text>
</g>

<g fill="#212121" fill-opacity="1" stroke="#212121" stroke-opacity="1" stroke-width="1" stroke-linecap="square" stroke-linejoin="bevel" transform="matrix(0.510966,0,0,0.517001,437.897,597.473)"
font-family="Helvetica" font-size="20" font-weight="400" font-style="normal" 
>
<text fill="#212121" fill-opacity="1" stroke="none" xml:space="preserve" x="0" y="0.390625" font-family="Helvetica" font-size="20" font-weight="400" font-style="normal" 
 >2.5</text>
</g>

<g fill="#212121" fill-opacity="1" stroke="#212121" stroke-opacity="1" stroke-width="1" stroke-linecap="square" stroke-linejoin="bevel" transform="matrix(0.510966,0,0,0.517001,521.016,597.473)"
font-family="Helvetica" font-size="20" font-weight="400" font-style="normal" 
>
<text fill="#212121" fill-opacity="1" stroke="none" xml:space="preserve" x="0" y="0.390625" font-family="Helvetica" font-size="20" font-weight="400" font-style="normal" 
 >3</text>
</g>

<g fill="#212121" fill-opacity="1" stroke="#212121" stroke-opacity="1" stroke-width="1" stroke-linecap="square" stroke-linejoin="bevel" transform="matrix(0.510966,0,0,0.517001,595.448,597.473)"
font-family="Helvetica" font-size="20" font-weight="400" font-style="normal" 
>
<text fill="#212121" fill-opacity="1" stroke="none" xml:space="preserve" x="0" y="0.390625" font-family="Helvetica" font-size="20" font-weight="400" font-style="normal" 
 >3.5</text>
</g>

<g fill="#212121" fill-opacity="1" stroke="#212121" stroke-opacity="1" stroke-width="1" stroke-linecap="square" stroke-linejoin="bevel" transform="matrix(0.510966,0,0,0.517001,678.567,597.473)"
font-family="Helvetica" font-size="20" font-weight="400" font-style="normal" 
>
<text fill="#212121" fill-opacity="1" stroke="none" xml:space="preserve" x="0" y="0.390625" font-family="Helvetica" font-size="20" font-weight="400" font-style="normal" 
 >4</text>
</g>

<g fill="#212121" fill-opacity="1" stroke="#212121" stroke-opacity="1" stroke-width="1" stroke-linecap="square" stroke-linejoin="bevel" transform="matrix(0.510966,0,0,0.517001,352.023,611.432)"
font-family="Helvetica" font-size="22" font-weight="400" font-style="normal" 
>
<text fill="#212121" fill-opacity="1" stroke="none" xml:space="preserve" x="0" y="-0.0625" font-family="Helvetica" font-size="22" font-weight="400" font-style="normal" 
 >Time (seconds)</text>
</g>

<g fill="#212121" fill-opacity="1" stroke="#212121" stroke-opacity="1" stroke-width="1" stroke-linecap="square" stroke-linejoin="bevel" transform="matrix(0.510966,0,0,0.517001,731.16,610.398)"
font-family="Helvetica" font-size="20" font-weight="400" font-style="normal" 
>
<text fill="#212121" fill-opacity="1" stroke="none" xml:space="preserve" x="0" y="0.390625" font-family="Helvetica" font-size="20" font-weight="400" font-style="normal" 
 >sec</text>
</g>

<g fill="#212121" fill-opacity="1" stroke="#212121" stroke-opacity="1" stroke-width="1" stroke-linecap="square" stroke-linejoin="bevel" transform="matrix(0,-0.517001,0.510966,0,9.67546,504.671)"
font-family="Helvetica" font-size="22" font-weight="400" font-style="normal" 
>
<text fill="#212121" fill-opacity="1" stroke="none" xml:space="preserve" x="0" y="-0.0625" font-family="Helvetica" font-size="22" font-weight="400" font-style="normal" 
 >Velocity (deg/s)</text>
</g>

<g fill="#212121" fill-opacity="1" stroke="#212121" stroke-opacity="1" stroke-width="1" stroke-linecap="square" stroke-linejoin="round" transform="matrix(0.510966,0,0,0.517001,-85.3643,-38.9553)"
font-family="Helvetica" font-size="22" font-weight="400" font-style="normal" 
>
<polyline fill="none" vector-effect="none" points="234,1208 234,745 " />
<polyline fill="none" vector-effect="none" points="1629,1208 1629,745 " />
<polyline fill="none" vector-effect="none" points="234,1208 247.95,1208 " />
<polyline fill="none" vector-effect="none" points="1615.05,1208 1629,1208 " />
<polyline fill="none" vector-effect="none" points="234,1130.83 247.95,1130.83 " />
<polyline fill="none" vector-effect="none" points="1615.05,1130.83 1629,1130.83 " />
<polyline fill="none" vector-effect="none" points="234,1053.67 247.95,1053.67 " />
<polyline fill="none" vector-effect="none" points="1615.05,1053.67 1629,1053.67 " />
<polyline fill="none" vector-effect="none" points="234,976.5 247.95,976.5 " />
<polyline fill="none" vector-effect="none" points="1615.05,976.5 1629,976.5 " />
<polyline fill="none" vector-effect="none" points="234,899.333 247.95,899.333 " />
<polyline fill="none" vector-effect="none" points="1615.05,899.333 1629,899.333 " />
<polyline fill="none" vector-effect="none" points="234,822.167 247.95,822.167 " />
<polyline fill="none" vector-effect="none" points="1615.05,822.167 1629,822.167 " />
<polyline fill="none" vector-effect="none" points="234,745 247.95,745 " />
<polyline fill="none" vector-effect="none" points="1615.05,745 1629,745 " />
</g>

<g fill="#212121" fill-opacity="1" stroke="#212121" stroke-opacity="1" stroke-width="1" stroke-linecap="square" stroke-linejoin="bevel" transform="matrix(0.510966,0,0,0.517001,15.2961,588.167)"
font-family="Helvetica" font-size="20" font-weight="400" font-style="normal" 
>
<text fill="#212121" fill-opacity="1" stroke="none" xml:space="preserve" x="0" y="0.390625" font-family="Helvetica" font-size="20" font-weight="400" font-style="normal" 
 >-30</text>
</g>

<g fill="#212121" fill-opacity="1" stroke="#212121" stroke-opacity="1" stroke-width="1" stroke-linecap="square" stroke-linejoin="bevel" transform="matrix(0.510966,0,0,0.517001,15.2961,548.272)"
font-family="Helvetica" font-size="20" font-weight="400" font-style="normal" 
>
<text fill="#212121" fill-opacity="1" stroke="none" xml:space="preserve" x="0" y="0.390625" font-family="Helvetica" font-size="20" font-weight="400" font-style="normal" 
 >-20</text>
</g>

<g fill="#212121" fill-opacity="1" stroke="#212121" stroke-opacity="1" stroke-width="1" stroke-linecap="square" stroke-linejoin="bevel" transform="matrix(0.510966,0,0,0.517001,15.2961,508.376)"
font-family="Helvetica" font-size="20" font-weight="400" font-style="normal" 
>
<text fill="#212121" fill-opacity="1" stroke="none" xml:space="preserve" x="0" y="0.390625" font-family="Helvetica" font-size="20" font-weight="400" font-style="normal" 
 >-10</text>
</g>

<g fill="#212121" fill-opacity="1" stroke="#212121" stroke-opacity="1" stroke-width="1" stroke-linecap="square" stroke-linejoin="bevel" transform="matrix(0.510966,0,0,0.517001,24.4935,468.481)"
font-family="Helvetica" font-size="20" font-weight="400" font-style="normal" 
>
<text fill="#212121" fill-opacity="1" stroke="none" xml:space="preserve" x="0" y="0.390625" font-family="Helvetica" font-size="20" font-weight="400" font-style="normal" 
 >0</text>
</g>

<g fill="#212121" fill-opacity="1" stroke="#212121" stroke-opacity="1" stroke-width="1" stroke-linecap="square" stroke-linejoin="bevel" transform="matrix(0.510966,0,0,0.517001,18.8729,428.586)"
font-family="Helvetica" font-size="20" font-weight="400" font-style="normal" 
>
<text fill="#212121" fill-opacity="1" stroke="none" xml:space="preserve" x="0" y="0.390625" font-family="Helvetica" font-size="20" font-weight="400" font-style="normal" 
 >10</text>
</g>

<g fill="#212121" fill-opacity="1" stroke="#212121" stroke-opacity="1" stroke-width="1" stroke-linecap="square" stroke-linejoin="bevel" transform="matrix(0.510966,0,0,0.517001,18.8729,388.691)"
font-family="Helvetica" font-size="20" font-weight="400" font-style="normal" 
>
<text fill="#212121" fill-opacity="1" stroke="none" xml:space="preserve" x="0" y="0.390625" font-family="Helvetica" font-size="20" font-weight="400" font-style="normal" 
 >20</text>
</g>

<g fill="#212121" fill-opacity="1" stroke="#212121" stroke-opacity="1" stroke-width="1" stroke-linecap="square" stroke-linejoin="bevel" transform="matrix(0.510966,0,0,0.517001,18.8729,348.795)"
font-family="Helvetica" font-size="20" font-weight="400" font-style="normal" 
>
<text fill="#212121" fill-opacity="1" stroke="none" xml:space="preserve" x="0" y="0.390625" font-family="Helvetica" font-size="20" font-weight="400" font-style="normal" 
 >30</text>
</g>

<g fill="#212121" fill-opacity="1" stroke="#212121" stroke-opacity="1" stroke-width="1" stroke-linecap="square" stroke-linejoin="bevel" transform="matrix(0.510966,0,0,0.517001,333.373,342.204)"
font-family="Helvetica" font-size="22" font-weight="700" font-style="normal" 
>
<text fill="#212121" fill-opacity="1" stroke="none" xml:space="preserve" x="0" y="-0.0625" font-family="Helvetica" font-size="22" font-weight="700" font-style="normal" 
 >Actual Arm Velocities</text>
</g>

<g fill="none" stroke="#0000ff" stroke-opacity="1" stroke-width="1" stroke-linecap="butt" stroke-linejoin="round" transform="matrix(0.510966,0,0,0.517001,-85.3643,-38.9553)"
font-family="Helvetica" font-size="22" font-weight="700" font-style="normal" 
>
<polyline fill="none" vector-effect="none" points="267.214,976.5 269.826,976.5 273.013,976.5 276.086,976.5 279.209,976.5 282.21,976.5 285.347,976.5 288.437,976.5 291.549,976.5 294.549,976.5 297.589,976.5 300.76,976.5 303.877,976.5 306.903,976.5 309.993,976.5 313.078,976.5 316.242,976.5 319.194,976.5 322.299,976.5 325.425,976.5 328.561,976.5 331.587,976.5 334.701,976.5 337.737,976.5 340.823,976.5 343.901,976.5 347.005,976.5 350.02,976.5 353.16,976.5 356.224,976.5 359.368,976.5 362.399,976.5 365.543,976.5 368.578,976.5 371.71,976.5 374.738,976.5 377.854,976.5 380.894,976.5 384.028,976.5 387.069,976.5 390.172,976.5 393.235,976.5 396.315,976.5 399.416,976.5 402.485,976.5 405.6,976.5 408.697,976.5 411.73,976.5 414.805,976.5 417.932,976.5 421.044,976.5 424.054,976.5 427.136,976.5 430.238,976.5 433.33,976.5 436.414,976.5 439.465,976.5 442.581,976.5 445.63,976.5 448.743,976.5 451.799,976.5 454.917,976.5 457.933,976.5 461.075,976.5 464.388,976.5 467.181,976.5 470.306,976.5 473.438,976.5 476.504,976.5 479.592,976.5 482.712,976.5 485.819,976.5 488.798,976.5 491.905,976.5 494.98,976.5 498.074,976.5 501.151,976.5 504.224,976.5 507.321,976.5 510.399,976.5 513.467,976.5 516.543,976.5 519.666,976.5 522.741,976.5 525.992,976.5 528.881,976.5 532.022,976.5 535.104,976.5 538.205,976.5 541.252,976.5 544.358,976.5 547.387,976.5 550.505,976.5 553.563,976.5 556.674,976.5 559.767,976.5 562.83,976.5 565.947,976.5 569.001,976.5 572.085,976.5 575.168,976.5 578.227,976.5 581.353,976.5 584.463,976.5 587.472,976.5 590.576,976.5 593.675,976.5 596.728,976.5 599.824,976.5 602.933,976.5 606.085,976.5 609.026,976.5 612.229,976.5 615.246,976.5 618.389,976.5 621.432,976.5 624.482,976.5 627.576,976.5 630.674,976.5 633.761,976.5 636.818,976.5 639.902,976.5 642.929,976.5 646.087,976.5 649.157,976.5 652.25,976.5 655.417,976.5 658.431,976.5 661.478,976.5 664.566,976.5 667.676,976.5 670.736,976.5 673.842,976.5 676.912,976.5 679.99,976.5 683.248,976.5 686.284,976.5 689.203,976.5 692.396,976.5 695.319,976.5 698.502,976.5 701.56,976.5 704.688,976.5 707.77,976.5 710.832,976.5 713.921,976.5 717.002,976.5 720.087,976.5 723.167,976.5 726.249,976.5 729.344,976.5 732.389,976.5 735.484,976.5 738.597,976.5 741.762,976.5 744.724,976.5 747.88,976.5 750.939,976.5 754.002,976.5 757.268,976.5 760.37,976.5 763.217,976.5 766.393,976.5 769.467,976.5 772.519,976.5 775.584,976.5 778.713,976.5 781.772,975.462 784.776,967.174 787.872,963.193 791.009,959.059 794.017,954.483 797.215,944.078 800.223,933.278 803.354,930.992 806.376,930.154 809.544,928.32 812.584,919.197 815.715,905.955 818.732,900.281 821.837,901.127 824.966,896.627 828.047,885.586 831.128,870.753 834.169,860.826 837.275,860.681 840.669,860.124 843.411,856.863 846.476,849.385 849.6,843.882 852.629,839.19 855.707,836.896 858.767,836.546 861.93,831.363 865.026,825.276 868.1,814.916 871.205,809.025 874.248,800.248 877.391,801.649 880.387,801.417 883.496,799.794 886.556,797.214 889.668,792.484 892.745,783.912 895.846,777.584 898.878,774.558 901.984,772.914 905.07,772.717 908.211,771.49 911.224,767.781 914.438,764.435 917.429,763.363 920.508,762.811 923.645,761.636 926.697,759.926 929.764,756.358 932.852,756.989 935.936,757.167 939.019,754.855 942.083,756.228 945.221,755.383 948.22,755.718 951.336,755.598 954.461,753.44 957.503,754.951 960.585,756.315 963.66,756.947 966.74,757.547 969.858,758.657 972.918,759.659 976.036,761.972 979.073,762.322 982.178,763.952 985.235,765.847 988.33,771.016 991.398,772.222 994.802,776.77 997.558,777.676 1000.81,782.474 1003.77,784.393 1006.92,788.535 1009.96,791.447 1013.02,798.189 1016.1,798.211 1019.29,798.823 1022.29,805.785 1025.4,816.153 1028.45,820.643 1031.51,821.024 1034.59,822.571 1037.71,827.154 1040.76,835.298 1043.85,836.429 1046.96,838.243 1050.05,848.765 1053.08,859.811 1056.18,871.188 1059.28,871.72 1062.35,875.66 1065.4,880.624 1068.58,885.418 1071.66,889.972 1074.65,895.336 1077.8,903.25 1080.87,910.392 1084.01,916.837 1087.06,922.654 1090.11,927.904 1093.18,932.642 1096.25,936.919 1099.4,940.778 1102.46,942.564 1105.51,944.261 1108.52,945.873 1111.69,947.404 1114.8,948.859 1117.85,951.554 1120.9,953.986 1124.06,955.112 1127.07,956.181 1130.19,957.197 1133.26,958.162 1136.39,959.95 1139.46,961.564 1142.49,963.02 1145.59,964.334 1148.88,964.943 1151.79,965.521 1154.81,966.591 1157.95,967.557 1161.08,968.429 1164.06,968.833 1167.21,969.216 1170.25,969.926 1173.35,970.567 1176.42,970.864 1179.52,971.413 1182.61,971.668 1185.67,972.139 1188.79,972.564 1191.85,972.948 1194.9,973.294 1198,973.607 1201.12,973.751 1204.2,974.019 1207.23,974.261 1210.35,974.373 1213.37,974.581 1216.49,974.768 1219.57,974.937 1222.69,975.089 1225.74,975.227 1228.84,975.351 1231.98,975.463 1235.04,975.564 1238.12,975.655 1241.19,975.697 1244.31,975.776 1247.28,975.846 1250.43,975.91 1253.57,975.94 1256.57,975.994 1259.71,976.044 1262.88,976.066 1265.84,976.109 1268.91,976.128 1272.02,976.164 1275.07,976.197 1278.16,976.227 1281.24,976.24 1284.34,976.266 1287.45,976.289 1290.49,976.309 1293.57,976.319 1296.7,976.336 1299.74,976.352 1303.07,976.36 1305.96,976.367 1309,976.373 1312.08,976.386 1315.17,976.397 1318.28,976.407 1321.36,976.416 1324.45,976.424 1327.49,976.432 1330.6,976.438 1333.69,976.441 1336.76,976.447 1339.87,976.452 1342.97,976.457 1346,976.461 1349.1,976.465 1352.18,976.468 1355.33,976.47 1358.35,976.471 1361.4,976.473 1364.52,976.474 1367.59,976.477 1370.7,976.479 1373.75,976.48 1377.07,976.482 1379.93,976.483 1383.02,976.484 1386.1,976.485 1389.19,976.486 1392.28,976.487 1395.4,976.489 1398.41,976.489 1401.53,976.49 1404.67,976.491 1407.71,976.491 1410.75,976.492 1413.84,976.493 1416.92,976.493 1419.99,976.494 1423.11,976.494 1426.19,976.495 1429.3,976.495 1432.39,976.496 1435.45,976.496 1438.56,976.496 1441.56,976.497 1444.68,976.497 1447.75,976.497 1450.87,976.497 1453.9,976.498 1457.09,976.498 1460.18,976.498 1463.14,976.498 1466.27,976.498 1469.37,976.498 1472.4,976.498 1475.58,976.499 1478.6,976.499 1481.68,976.499 1484.74,976.499 1487.85,976.499 1490.94,976.499 1494.04,976.499 1497.14,976.499 1500.2,976.499 1503.22,976.499 1506.41,976.499 1509.5,976.499 1512.51,976.499 1515.65,976.5 1518.71,976.5 1521.76,976.5 1524.89,976.5 1527.99,976.5 1531.14,976.5 1534.12,976.5 1537.11,976.5 1540.27,976.5 1543.38,976.5 1546.46,976.5 1549.5,976.5 1552.58,976.5 1555.73,976.5 1558.79,976.5 1561.89,976.5 1564.93,976.5 1568.02,976.5 1571.13,976.5 1574.1,976.5 1577.22,976.5 1580.34,976.5 1583.45,976.5 1586.51,976.5 1589.59,976.5 1592.63,976.5 1595.79,976.5 " />
</g>

<g fill="none" stroke="#ff0000" stroke-opacity="1" stroke-width="1" stroke-linecap="butt" stroke-linejoin="round" transform="matrix(0.510966,0,0,0.517001,-85.3643,-38.9553)"
font-family="Helvetica" font-size="22" font-weight="700" font-style="normal" 
>
<polyline fill="none" vector-effect="none" points="267.214,976.5 269.826,976.5 273.013,976.5 276.086,976.5 279.209,976.5 282.21,976.5 285.347,976.5 288.437,976.5 291.549,976.5 294.549,976.5 297.589,976.5 300.76,976.5 303.877,976.5 306.903,976.5 309.993,976.5 313.078,976.5 316.242,976.5 319.194,976.5 322.299,976.5 325.425,976.5 328.561,976.5 331.587,976.5 334.701,976.5 337.737,976.5 340.823,976.5 343.901,976.5 347.005,976.5 350.02,976.5 353.16,976.5 356.224,976.5 359.368,976.5 362.399,976.5 365.543,976.5 368.578,976.5 371.71,976.5 374.738,976.5 377.854,976.5 380.894,976.5 384.028,976.5 387.069,976.5 390.172,976.5 393.235,976.5 396.315,976.5 399.416,976.5 402.485,976.5 405.6,976.5 408.697,976.5 411.73,976.5 414.805,976.5 417.932,976.5 421.044,976.5 424.054,976.5 427.136,976.5 430.238,976.5 433.33,976.5 436.414,976.5 439.465,976.5 442.581,976.5 445.63,976.5 448.743,976.5 451.799,976.5 454.917,976.5 457.933,976.5 461.075,976.5 464.388,976.5 467.181,976.5 470.306,976.5 473.438,976.5 476.504,976.5 479.592,976.5 482.712,976.5 485.819,976.5 488.798,976.5 491.905,976.5 494.98,976.5 498.074,976.5 501.151,976.5 504.224,976.5 507.321,976.5 510.399,976.5 513.467,976.5 516.543,976.5 519.666,976.5 522.741,976.5 525.992,976.5 528.881,976.5 532.022,976.5 535.104,976.5 538.205,976.5 541.252,976.5 544.358,976.5 547.387,976.5 550.505,976.5 553.563,976.5 556.674,976.5 559.767,976.5 562.83,976.5 565.947,976.5 569.001,976.5 572.085,976.5 575.168,976.5 578.227,976.5 581.353,976.5 584.463,976.5 587.472,976.5 590.576,976.5 593.675,976.5 596.728,976.5 599.824,976.5 602.933,976.5 606.085,976.5 609.026,976.5 612.229,976.5 615.246,976.5 618.389,976.5 621.432,976.5 624.482,976.5 627.576,976.5 630.674,976.5 633.761,976.5 636.818,976.5 639.902,976.5 642.929,976.5 646.087,976.5 649.157,976.5 652.25,976.5 655.417,976.5 658.431,976.5 661.478,976.5 664.566,976.5 667.676,976.5 670.736,976.5 673.842,976.5 676.912,976.5 679.99,976.5 683.248,976.5 686.284,976.5 689.203,976.5 692.396,976.5 695.319,976.5 698.502,976.5 701.56,976.5 704.688,976.5 707.77,976.5 710.832,976.5 713.921,976.5 717.002,976.5 720.087,976.5 723.167,976.5 726.249,976.5 729.344,976.5 732.389,976.5 735.484,976.5 738.597,976.5 741.762,976.5 744.724,976.5 747.88,976.5 750.939,976.5 754.002,976.5 757.268,976.5 760.37,976.5 763.217,976.5 766.393,976.5 769.467,976.5 772.519,976.5 775.584,976.5 778.713,976.5 781.772,977.538 784.776,988.299 787.872,992.157 791.009,991.616 794.017,997.827 797.215,1009.71 800.223,1015.56 803.354,1016.58 806.376,1017.69 809.544,1022.89 812.584,1034.16 815.715,1037.63 818.732,1039.36 821.837,1043.62 824.966,1055.35 828.047,1067.9 831.128,1068.08 834.169,1071.7 837.275,1075.84 840.669,1085.4 843.411,1090.33 846.476,1094.92 849.6,1094.93 852.629,1097.5 855.707,1107.03 858.767,1115.95 861.93,1124 865.026,1129.86 868.1,1133.73 871.205,1137.23 874.248,1140.39 877.391,1142.57 880.387,1151.06 883.496,1152.71 886.556,1155.32 889.668,1159.11 892.745,1162.95 895.846,1166.41 898.878,1167.3 901.984,1170.03 905.07,1172.21 908.211,1173.84 911.224,1175.82 914.438,1181.49 917.429,1182.92 920.508,1186.49 923.645,1187.85 926.697,1187.66 929.764,1188.3 932.852,1189.57 935.936,1193.48 939.019,1196.02 942.083,1194.85 945.221,1195.79 948.22,1195.64 951.336,1197.97 954.461,1196.61 957.503,1195.39 960.585,1194.28 963.66,1193.77 966.74,1193.28 969.858,1192.39 972.918,1191.57 976.036,1189.43 979.073,1189.16 982.178,1187.68 985.235,1185.92 988.33,1184.33 991.398,1176.62 994.802,1173.12 997.558,1172.37 1000.81,1173.51 1003.77,1172.74 1006.92,1160.35 1009.96,1157.65 1013.02,1159.13 1016.1,1160.37 1019.29,1159.48 1022.29,1145.58 1025.4,1135.37 1028.45,1137.3 1031.51,1136.68 1034.59,1135.93 1037.71,1130.04 1040.76,1117.04 1043.85,1112.98 1046.96,1112.38 1050.05,1108.51 1053.08,1098.45 1056.18,1087.97 1059.28,1077.1 1062.35,1068.7 1065.4,1059.71 1068.58,1055.55 1071.66,1051.6 1074.65,1047.84 1077.8,1040.89 1080.87,1034.61 1084.01,1028.94 1087.06,1023.83 1090.11,1019.22 1093.18,1015.05 1096.25,1011.29 1099.4,1007.9 1102.46,1006.33 1105.51,1004.84 1108.52,1003.42 1111.69,1002.08 1114.8,1000.8 1117.85,998.428 1120.9,996.29 1124.06,995.301 1127.07,994.361 1130.19,993.467 1133.26,992.619 1136.39,991.047 1139.46,989.629 1142.49,988.349 1145.59,987.194 1148.88,986.659 1151.79,986.151 1154.81,985.21 1157.95,984.361 1161.08,983.594 1164.06,983.24 1167.21,982.903 1170.25,982.279 1173.35,981.715 1176.42,981.454 1179.52,980.971 1182.61,980.748 1185.67,980.334 1188.79,979.96 1191.85,979.622 1194.9,979.318 1198,979.043 1201.12,978.916 1204.2,978.681 1207.23,978.468 1210.35,978.37 1213.37,978.187 1216.49,978.023 1219.57,977.874 1222.69,977.74 1225.74,977.619 1228.84,977.51 1231.98,977.412 1235.04,977.323 1238.12,977.243 1241.19,977.205 1244.31,977.137 1247.28,977.075 1250.43,977.019 1253.57,976.993 1256.57,976.945 1259.71,976.901 1262.88,976.881 1265.84,976.844 1268.91,976.827 1272.02,976.795 1275.07,976.766 1278.16,976.74 1281.24,976.728 1284.34,976.706 1287.45,976.686 1290.49,976.668 1293.57,976.659 1296.7,976.644 1299.74,976.63 1303.07,976.623 1305.96,976.617 1309,976.611 1312.08,976.6 1315.17,976.591 1318.28,976.582 1321.36,976.574 1324.45,976.567 1327.49,976.56 1330.6,976.554 1333.69,976.552 1336.76,976.547 1339.87,976.542 1342.97,976.538 1346,976.534 1349.1,976.531 1352.18,976.528 1355.33,976.526 1358.35,976.525 1361.4,976.524 1364.52,976.523 1367.59,976.521 1370.7,976.518 1373.75,976.518 1377.07,976.516 1379.93,976.515 1383.02,976.514 1386.1,976.513 1389.19,976.512 1392.28,976.511 1395.4,976.51 1398.41,976.509 1401.53,976.509 1404.67,976.508 1407.71,976.508 1410.75,976.507 1413.84,976.506 1416.92,976.506 1419.99,976.505 1423.11,976.505 1426.19,976.505 1429.3,976.504 1432.39,976.504 1435.45,976.504 1438.56,976.503 1441.56,976.503 1444.68,976.503 1447.75,976.503 1450.87,976.502 1453.9,976.502 1457.09,976.502 1460.18,976.502 1463.14,976.502 1466.27,976.502 1469.37,976.502 1472.4,976.501 1475.58,976.501 1478.6,976.501 1481.68,976.501 1484.74,976.501 1487.85,976.501 1490.94,976.501 1494.04,976.501 1497.14,976.501 1500.2,976.501 1503.22,976.501 1506.41,976.501 1509.5,976.5 1512.51,976.5 1515.65,976.5 1518.71,976.5 1521.76,976.5 1524.89,976.5 1527.99,976.5 1531.14,976.5 1534.12,976.5 1537.11,976.5 1540.27,976.5 1543.38,976.5 1546.46,976.5 1549.5,976.5 1552.58,976.5 1555.73,976.5 1558.79,976.5 1561.89,976.5 1564.93,976.5 1568.02,976.5 1571.13,976.5 1574.1,976.5 1577.22,976.5 1580.34,976.5 1583.45,976.5 1586.51,976.5 1589.59,976.5 1592.63,976.5 1595.79,976.5 " />
</g>

<g fill="#ffffff" fill-opacity="1" stroke="none" transform="matrix(5.10966e-05,0,0,5.17001e-05,-85.3643,-38.9553)"
font-family="Helvetica" font-size="22" font-weight="700" font-style="normal" 
>
<path vector-effect="none" fill-rule="evenodd" d="M1.434e+07,7.61e+06 L1.434e+07,8.1e+06 L1.613e+07,8.1e+06 L1.613e+07,7.61e+06 L1.434e+07,7.61e+06"/>
</g>

<g fill="#0000ff" fill-opacity="1" stroke="#0000ff" stroke-opacity="1" stroke-width="1" stroke-linecap="butt" stroke-linejoin="round" transform="matrix(0.510966,0,0,0.517001,-85.3643,-38.9553)"
font-family="Helvetica" font-size="22" font-weight="700" font-style="normal" 
>
<polyline fill="none" vector-effect="none" points="1439.98,774.569 1499.82,774.569 " />
</g>

<g fill="#ff0000" fill-opacity="1" stroke="#ff0000" stroke-opacity="1" stroke-width="1" stroke-linecap="butt" stroke-linejoin="round" transform="matrix(0.510966,0,0,0.517001,-85.3643,-38.9553)"
font-family="Helvetica" font-size="22" font-weight="700" font-style="normal" 
>
<polyline fill="none" vector-effect="none" points="1439.98,796.431 1499.82,796.431 " />
</g>

<g fill="#212121" fill-opacity="1" stroke="#212121" stroke-opacity="1" stroke-width="1" stroke-linecap="square" stroke-linejoin="bevel" transform="matrix(0.510966,0,0,0.517001,683.284,364.083)"
font-family="Helvetica" font-size="18" font-weight="400" font-style="normal" 
>
<text fill="#212121" fill-opacity="1" stroke="none" xml:space="preserve" x="0" y="-0.140625" font-family="Helvetica" font-size="18" font-weight="400" font-style="normal" 
 >Base Vel</text>
</g>

<g fill="#212121" fill-opacity="1" stroke="#212121" stroke-opacity="1" stroke-width="1" stroke-linecap="square" stroke-linejoin="bevel" transform="matrix(0.510966,0,0,0.517001,683.284,375.385)"
font-family="Helvetica" font-size="18" font-weight="400" font-style="normal" 
>
<text fill="#212121" fill-opacity="1" stroke="none" xml:space="preserve" x="0" y="-0.140625" font-family="Helvetica" font-size="18" font-weight="400" font-style="normal" 
 >Shoulder Vel</text>
</g>

<g fill="none" stroke="#212121" stroke-opacity="1" stroke-width="1" stroke-linecap="butt" stroke-linejoin="miter" stroke-miterlimit="5" transform="matrix(0.510966,0,0,0.517001,-85.3643,-38.9553)"
font-family="Helvetica" font-size="18" font-weight="400" font-style="normal" 
>
<path vector-effect="none" fill-rule="evenodd" d="M1434,810 L1434,761 L1613,761 L1613,810 L1434,810"/>
</g>
</g>
</svg>
